# xmcd
# 
# Track frame offsets:
#     150
#     16715
#     33418
#     49500
#     62827
#     79815
#     92865
#     107645
#     120653
#     132550
# 
# Disc length: 1944
# 
# Revision: 2
# Processed by: cddbd v1.5.2PL0 Copyright (c) Steve Scherf et al.
# Submitted via: fre:ac v1.0.17
# 
DISCID=7d07960a
DTITLE=Frank Sinatra - Sinatra [CD1]
DYEAR=2009
DGENRE=Jazz
TTITLE0=Night and Day
TTITLE1=Without A Song
TTITLE2=The Very Thought of You
TTITLE3=Summer Wind
TTITLE4=All Or Nothing At Alll
TTITLE5=Let's Face the Music and Dance
TTITLE6=I Get A Kick Out Of You
TTITLE7=For Once In My Life
TTITLE8=Strangers In The Night
TTITLE9=Young At Heart
EXTD=YEAR: 2009
EXTT0=
EXTT1=
EXTT2=
EXTT3=
EXTT4=
EXTT5=
EXTT6=
EXTT7=
EXTT8=
EXTT9=
PLAYORDER=
